{"accessors" : [{"bufferView" : 0, "byteOffset" : 0, "componentType" : 5123, "count" : 149994, "type" : "SCALAR", "max" : [30563], "min" : [0]}, {"bufferView" : 1, "byteOffset" : 0, "componentType" : 5126, "count" : 30564, "type" : "VEC3", "max" : [1, 0.8998299837112427, 0.9959909915924072], "min" : [-1, -0.8998299837112427, -0.9959909915924072], "name" : "POSITION"}, {"bufferView" : 1, "byteOffset" : 12, "componentType" : 5126, "count" : 30564, "type" : "VEC3", "max" : [0.999636709690094, 0.9999992847442627, 0.9999151229858398], "min" : [-0.9999982118606567, -0.9999905824661255, -0.9999567270278931], "name" : "NORMAL"}, {"bufferView" : 1, "byteOffset" : 24, "componentType" : 5126, "count" : 30564, "type" : "VEC2", "max" : [0.99951171875, 1.99951171875], "min" : [0.0004630088806152344, 1.000460147857666], "name" : "TEXCOORD_0"}], "asset" : {"generator" : "Aspose.3D 24.6.0", "version" : "2.0"}, "buffers" : [{"uri" : "data:application/octet-stream;base64,", "byteLength" : 1278044}], "bufferViews" : [{"buffer" : 0, "byteOffset" : 0, "byteLength" : 299988, "target" : 34963}, {"buffer" : 0, "byteOffset" : 299992, "byteLength" : 978048, "byteStride" : 32, "target" : 34962}], "images" : [{"uri" : "data:image/jpeg;base64,"}], "materials" : [{"pbrMetallicRoughness" : {"baseColorFactor" : [1, 1, 1, 1], "baseColorTexture" : {"index" : 0, "texCoord" : 0}, "metallicFactor" : 0, "roughnessFactor" : 0.8}, "emissiveFactor" : [0, 0, 0], "alphaMode" : "OPAQUE", "doubleSided" : true}], "meshes" : [{"primitives" : [{"attributes" : {"POSITION" : 1, "NORMAL" : 2, "TEXCOORD_0" : 3}, "indices" : 0, "material" : 0, "mode" : 4}]}], "nodes" : [{"mesh" : 0, "name" : "Node #0"}], "samplers" : [{"magFilter" : 9729, "minFilter" : 9987, "wrapS" : 10497, "wrapT" : 10497}], "scene" : 0, "scenes" : [{"nodes" : [0]}], "textures" : [{"sampler" : 0, "source" : 0, "name" : ""}]}