{"accessors" : [{"bufferView" : 0, "byteOffset" : 0, "componentType" : 5123, "count" : 149787, "type" : "SCALAR", "max" : [29418], "min" : [0]}, {"bufferView" : 1, "byteOffset" : 0, "componentType" : 5126, "count" : 29419, "type" : "VEC3", "max" : [0.9537249803543091, 0.7340790033340454, 1], "min" : [-0.9537249803543091, -0.7340790033340454, -1], "name" : "POSITION"}, {"bufferView" : 1, "byteOffset" : 12, "componentType" : 5126, "count" : 29419, "type" : "VEC3", "max" : [0.9999442100524902, 0.9999688863754272, 0.9999723434448242], "min" : [-0.9999697804450989, -0.9999496936798096, -0.9999260306358337], "name" : "NORMAL"}, {"bufferView" : 1, "byteOffset" : 24, "componentType" : 5126, "count" : 29419, "type" : "VEC2", "max" : [0.99951171875, 1.99951171875], "min" : [0.00043201446533203125, 1.000432014465332], "name" : "TEXCOORD_0"}], "asset" : {"generator" : "Aspose.3D 24.6.0", "version" : "2.0"}, "buffers" : [{"uri" : "data:application/octet-stream;base64,", "byteLength" : 1240992}], "bufferViews" : [{"buffer" : 0, "byteOffset" : 0, "byteLength" : 299576, "target" : 34963}, {"buffer" : 0, "byteOffset" : 299580, "byteLength" : 941408, "byteStride" : 32, "target" : 34962}], "images" : [{"uri" : "data:image/jpeg;base64,"}], "materials" : [{"pbrMetallicRoughness" : {"baseColorFactor" : [1, 1, 1, 1], "baseColorTexture" : {"index" : 0, "texCoord" : 0}, "metallicFactor" : 0, "roughnessFactor" : 0.8}, "emissiveFactor" : [0, 0, 0], "alphaMode" : "OPAQUE", "doubleSided" : true}], "meshes" : [{"primitives" : [{"attributes" : {"POSITION" : 1, "NORMAL" : 2, "TEXCOORD_0" : 3}, "indices" : 0, "material" : 0, "mode" : 4}]}], "nodes" : [{"mesh" : 0, "name" : "Node #0"}], "samplers" : [{"magFilter" : 9729, "minFilter" : 9987, "wrapS" : 10497, "wrapT" : 10497}], "scene" : 0, "scenes" : [{"nodes" : [0]}], "textures" : [{"sampler" : 0, "source" : 0, "name" : ""}]}