{"accessors" : [{"bufferView" : 0, "byteOffset" : 0, "componentType" : 5123, "count" : 149316, "type" : "SCALAR", "max" : [32340], "min" : [0]}, {"bufferView" : 1, "byteOffset" : 0, "componentType" : 5126, "count" : 32341, "type" : "VEC3", "max" : [1, 0.6507470011711121, 0.8701779842376709], "min" : [-1, -0.6507470011711121, -0.8701779842376709], "name" : "POSITION"}, {"bufferView" : 1, "byteOffset" : 12, "componentType" : 5126, "count" : 32341, "type" : "VEC3", "max" : [0.9999613761901855, 0.9999865293502808, 0.9999995231628418], "min" : [-0.999898374080658, -0.9999508857727051, -0.9999691247940063], "name" : "NORMAL"}, {"bufferView" : 1, "byteOffset" : 24, "componentType" : 5126, "count" : 32341, "type" : "VEC2", "max" : [0.99951171875, 1.99951171875], "min" : [0.00038504600524902344, 1.0003838539123535], "name" : "TEXCOORD_0"}], "asset" : {"generator" : "Aspose.3D 24.6.0", "version" : "2.0"}, "buffers" : [{"uri" : "data:application/octet-stream;base64,", "byteLength" : 1333552}], "bufferViews" : [{"buffer" : 0, "byteOffset" : 0, "byteLength" : 298632, "target" : 34963}, {"buffer" : 0, "byteOffset" : 298636, "byteLength" : 1034912, "byteStride" : 32, "target" : 34962}], "images" : [{"uri" : "data:image/jpeg;base64,"}], "materials" : [{"pbrMetallicRoughness" : {"baseColorFactor" : [1, 1, 1, 1], "baseColorTexture" : {"index" : 0, "texCoord" : 0}, "metallicFactor" : 0, "roughnessFactor" : 0.8}, "emissiveFactor" : [0, 0, 0], "alphaMode" : "OPAQUE", "doubleSided" : true}], "meshes" : [{"primitives" : [{"attributes" : {"POSITION" : 1, "NORMAL" : 2, "TEXCOORD_0" : 3}, "indices" : 0, "material" : 0, "mode" : 4}]}], "nodes" : [{"mesh" : 0, "name" : "Node #0"}], "samplers" : [{"magFilter" : 9729, "minFilter" : 9987, "wrapS" : 10497, "wrapT" : 10497}], "scene" : 0, "scenes" : [{"nodes" : [0]}], "textures" : [{"sampler" : 0, "source" : 0, "name" : ""}]}