{"accessors" : [{"bufferView" : 0, "byteOffset" : 0, "componentType" : 5123, "count" : 149202, "type" : "SCALAR", "max" : [36359], "min" : [0]}, {"bufferView" : 1, "byteOffset" : 0, "componentType" : 5126, "count" : 36360, "type" : "VEC3", "max" : [0.6283019781112671, 1, 0.5666379928588867], "min" : [-0.6283019781112671, -1, -0.5666379928588867], "name" : "POSITION"}, {"bufferView" : 1, "byteOffset" : 12, "componentType" : 5126, "count" : 36360, "type" : "VEC3", "max" : [0.999977707862854, 0.9998714923858643, 0.9999877214431763], "min" : [-0.9999997615814209, -0.9998726844787598, -0.999991774559021], "name" : "NORMAL"}, {"bufferView" : 1, "byteOffset" : 24, "componentType" : 5126, "count" : 36360, "type" : "VEC2", "max" : [0.99951171875, 1.99951171875], "min" : [0.0003979206085205078, 1.0004019737243652], "name" : "TEXCOORD_0"}], "asset" : {"generator" : "Aspose.3D 24.6.0", "version" : "2.0"}, "buffers" : [{"uri" : "data:application/octet-stream;base64,", "byteLength" : 1461932}], "bufferViews" : [{"buffer" : 0, "byteOffset" : 0, "byteLength" : 298404, "target" : 34963}, {"buffer" : 0, "byteOffset" : 298408, "byteLength" : 1163520, "byteStride" : 32, "target" : 34962}], "images" : [{"uri" : "data:image/jpeg;base64,"}], "materials" : [{"pbrMetallicRoughness" : {"baseColorFactor" : [1, 1, 1, 1], "baseColorTexture" : {"index" : 0, "texCoord" : 0}, "metallicFactor" : 0, "roughnessFactor" : 0.8}, "emissiveFactor" : [0, 0, 0], "alphaMode" : "OPAQUE", "doubleSided" : true}], "meshes" : [{"primitives" : [{"attributes" : {"POSITION" : 1, "NORMAL" : 2, "TEXCOORD_0" : 3}, "indices" : 0, "material" : 0, "mode" : 4}]}], "nodes" : [{"mesh" : 0, "name" : "Node #0"}], "samplers" : [{"magFilter" : 9729, "minFilter" : 9987, "wrapS" : 10497, "wrapT" : 10497}], "scene" : 0, "scenes" : [{"nodes" : [0]}], "textures" : [{"sampler" : 0, "source" : 0, "name" : ""}]}