{"accessors" : [{"bufferView" : 0, "byteOffset" : 0, "componentType" : 5123, "count" : 150000, "type" : "SCALAR", "max" : [26754], "min" : [0]}, {"bufferView" : 1, "byteOffset" : 0, "componentType" : 5126, "count" : 26755, "type" : "VEC3", "max" : [1, 0.9872509837150574, 0.9791839718818665], "min" : [-1, -0.9872509837150574, -0.9791839718818665], "name" : "POSITION"}, {"bufferView" : 1, "byteOffset" : 12, "componentType" : 5126, "count" : 26755, "type" : "VEC3", "max" : [0.9999462366104126, 0.9998515844345093, 0.9999434947967529], "min" : [-0.9999886155128479, -1.0000041723251343, -0.9998337626457214], "name" : "NORMAL"}, {"bufferView" : 1, "byteOffset" : 24, "componentType" : 5126, "count" : 26755, "type" : "VEC2", "max" : [0.99951171875, 1.99951171875], "min" : [0.00042510032653808594, 1.0004370212554932], "name" : "TEXCOORD_0"}], "asset" : {"generator" : "Aspose.3D 24.6.0", "version" : "2.0"}, "buffers" : [{"uri" : "data:application/octet-stream;base64,", "byteLength" : 1156168}], "bufferViews" : [{"buffer" : 0, "byteOffset" : 0, "byteLength" : 300000, "target" : 34963}, {"buffer" : 0, "byteOffset" : 300004, "byteLength" : 856160, "byteStride" : 32, "target" : 34962}], "images" : [{"uri" : "data:image/jpeg;base64,"}], "materials" : [{"pbrMetallicRoughness" : {"baseColorFactor" : [1, 1, 1, 1], "baseColorTexture" : {"index" : 0, "texCoord" : 0}, "metallicFactor" : 0, "roughnessFactor" : 0.8}, "emissiveFactor" : [0, 0, 0], "alphaMode" : "OPAQUE", "doubleSided" : true}], "meshes" : [{"primitives" : [{"attributes" : {"POSITION" : 1, "NORMAL" : 2, "TEXCOORD_0" : 3}, "indices" : 0, "material" : 0, "mode" : 4}]}], "nodes" : [{"mesh" : 0, "name" : "Node #0"}], "samplers" : [{"magFilter" : 9729, "minFilter" : 9987, "wrapS" : 10497, "wrapT" : 10497}], "scene" : 0, "scenes" : [{"nodes" : [0]}], "textures" : [{"sampler" : 0, "source" : 0, "name" : ""}]}