{"accessors" : [{"bufferView" : 0, "byteOffset" : 0, "componentType" : 5123, "count" : 149988, "type" : "SCALAR", "max" : [35230], "min" : [0]}, {"bufferView" : 1, "byteOffset" : 0, "componentType" : 5126, "count" : 35231, "type" : "VEC3", "max" : [1, 0.8179140090942383, 0.8847789764404297], "min" : [-1, -0.8179140090942383, -0.8847789764404297], "name" : "POSITION"}, {"bufferView" : 1, "byteOffset" : 12, "componentType" : 5126, "count" : 35231, "type" : "VEC3", "max" : [0.9997619390487671, 1.0000028610229492, 0.9997407793998718], "min" : [-0.999961256980896, -0.9999802112579346, -0.9999738335609436], "name" : "NORMAL"}, {"bufferView" : 1, "byteOffset" : 24, "componentType" : 5126, "count" : 35231, "type" : "VEC2", "max" : [0.99951171875, 1.99951171875], "min" : [0.0004200935363769531, 1.0004210472106934], "name" : "TEXCOORD_0"}], "asset" : {"generator" : "Aspose.3D 24.6.0", "version" : "2.0"}, "buffers" : [{"uri" : "data:application/octet-stream;base64,", "byteLength" : 1427376}], "bufferViews" : [{"buffer" : 0, "byteOffset" : 0, "byteLength" : 299976, "target" : 34963}, {"buffer" : 0, "byteOffset" : 299980, "byteLength" : 1127392, "byteStride" : 32, "target" : 34962}], "images" : [{"uri" : "data:image/jpeg;base64,"}], "materials" : [{"pbrMetallicRoughness" : {"baseColorFactor" : [1, 1, 1, 1], "baseColorTexture" : {"index" : 0, "texCoord" : 0}, "metallicFactor" : 0, "roughnessFactor" : 0.8}, "emissiveFactor" : [0, 0, 0], "alphaMode" : "OPAQUE", "doubleSided" : true}], "meshes" : [{"primitives" : [{"attributes" : {"POSITION" : 1, "NORMAL" : 2, "TEXCOORD_0" : 3}, "indices" : 0, "material" : 0, "mode" : 4}]}], "nodes" : [{"mesh" : 0, "name" : "Node #0"}], "samplers" : [{"magFilter" : 9729, "minFilter" : 9987, "wrapS" : 10497, "wrapT" : 10497}], "scene" : 0, "scenes" : [{"nodes" : [0]}], "textures" : [{"sampler" : 0, "source" : 0, "name" : ""}]}