{"accessors" : [{"bufferView" : 0, "byteOffset" : 0, "componentType" : 5123, "count" : 149922, "type" : "SCALAR", "max" : [33219], "min" : [0]}, {"bufferView" : 1, "byteOffset" : 0, "componentType" : 5126, "count" : 33220, "type" : "VEC3", "max" : [1, 0.7241569757461548, 0.9994909763336182], "min" : [-1, -0.7241569757461548, -0.9994909763336182], "name" : "POSITION"}, {"bufferView" : 1, "byteOffset" : 12, "componentType" : 5126, "count" : 33220, "type" : "VEC3", "max" : [0.9999692440032959, 0.9999237060546875, 0.9998841285705566], "min" : [-0.9999797344207764, -0.9999703168869019, -0.9998699426651001], "name" : "NORMAL"}, {"bufferView" : 1, "byteOffset" : 24, "componentType" : 5126, "count" : 33220, "type" : "VEC2", "max" : [0.99951171875, 1.99951171875], "min" : [0.00043702125549316406, 1.0004429817199707], "name" : "TEXCOORD_0"}], "asset" : {"generator" : "Aspose.3D 24.6.0", "version" : "2.0"}, "buffers" : [{"uri" : "data:application/octet-stream;base64,", "byteLength" : 1362892}], "bufferViews" : [{"buffer" : 0, "byteOffset" : 0, "byteLength" : 299844, "target" : 34963}, {"buffer" : 0, "byteOffset" : 299848, "byteLength" : 1063040, "byteStride" : 32, "target" : 34962}], "images" : [{"uri" : "data:image/jpeg;base64,"}], "materials" : [{"pbrMetallicRoughness" : {"baseColorFactor" : [1, 1, 1, 1], "baseColorTexture" : {"index" : 0, "texCoord" : 0}, "metallicFactor" : 0, "roughnessFactor" : 0.8}, "emissiveFactor" : [0, 0, 0], "alphaMode" : "OPAQUE", "doubleSided" : true}], "meshes" : [{"primitives" : [{"attributes" : {"POSITION" : 1, "NORMAL" : 2, "TEXCOORD_0" : 3}, "indices" : 0, "material" : 0, "mode" : 4}]}], "nodes" : [{"mesh" : 0, "name" : "Node #0"}], "samplers" : [{"magFilter" : 9729, "minFilter" : 9987, "wrapS" : 10497, "wrapT" : 10497}], "scene" : 0, "scenes" : [{"nodes" : [0]}], "textures" : [{"sampler" : 0, "source" : 0, "name" : ""}]}