{
	"asset":{
		"generator":"Khronos glTF Blender I/O v4.2.60",
		"version":"2.0"
	},
	"scene":0,
	"scenes":[
		{
			"name":"Scene",
			"nodes":[
				0
			]
		}
	],
	"nodes":[
		{
			"mesh":0,
			"name":"Mesh_0"
		}
	],
	"materials":[
		{
			"doubleSided":true,
			"name":"Material_0",
			"pbrMetallicRoughness":{
				"baseColorTexture":{
					"index":0
				},
				"metallicFactor":0,
				"roughnessFactor":0.800000011920929
			}
		}
	],
	"meshes":[
		{
			"name":"Mesh_0",
			"primitives":[
				{
					"attributes":{
						"POSITION":0,
						"NORMAL":1,
						"TEXCOORD_0":2
					},
					"indices":3,
					"material":0
				}
			]
		}
	],
	"textures":[
		{
			"sampler":0,
			"source":0
		}
	],
	"images":[
		{
			"mimeType":"image/jpeg",
			"name":"Image_0",
			"uri":"Image_0.jpg"
		}
	],
	"accessors":[
		{
			"bufferView":0,
			"componentType":5126,
			"count":37604,
			"max":[
				0.9768480062484741,
				0.9670209884643555,
				1
			],
			"min":[
				-0.9768480062484741,
				-0.9670209884643555,
				-1
			],
			"type":"VEC3"
		},
		{
			"bufferView":1,
			"componentType":5126,
			"count":37604,
			"type":"VEC3"
		},
		{
			"bufferView":2,
			"componentType":5126,
			"count":37604,
			"type":"VEC2"
		},
		{
			"bufferView":3,
			"componentType":5123,
			"count":142452,
			"type":"SCALAR"
		}
	],
	"bufferViews":[
		{
			"buffer":0,
			"byteLength":451248,
			"byteOffset":0,
			"target":34962
		},
		{
			"buffer":0,
			"byteLength":451248,
			"byteOffset":451248,
			"target":34962
		},
		{
			"buffer":0,
			"byteLength":300832,
			"byteOffset":902496,
			"target":34962
		},
		{
			"buffer":0,
			"byteLength":284904,
			"byteOffset":1203328,
			"target":34963
		}
	],
	"samplers":[
		{
			"magFilter":9729,
			"minFilter":9987
		}
	],
	"buffers":[
		{
			"byteLength":1488232,
			"uri":"earth.bin"
		}
	]
}
