{"accessors" : [{"bufferView" : 0, "byteOffset" : 0, "componentType" : 5123, "count" : 149817, "type" : "SCALAR", "max" : [28567], "min" : [0]}, {"bufferView" : 1, "byteOffset" : 0, "componentType" : 5126, "count" : 28568, "type" : "VEC3", "max" : [1, 0.998058021068573, 0.9771109819412231], "min" : [-1, -0.998058021068573, -0.9771109819412231], "name" : "POSITION"}, {"bufferView" : 1, "byteOffset" : 12, "componentType" : 5126, "count" : 28568, "type" : "VEC3", "max" : [0.9999163150787354, 0.9999271631240845, 0.9999693632125854], "min" : [-0.9999698400497437, -0.9999608993530273, -0.9999791383743286], "name" : "NORMAL"}, {"bufferView" : 1, "byteOffset" : 24, "componentType" : 5126, "count" : 28568, "type" : "VEC2", "max" : [0.99951171875, 1.99951171875], "min" : [0.0004448890686035156, 1.0004310607910156], "name" : "TEXCOORD_0"}], "asset" : {"generator" : "Aspose.3D 24.6.0", "version" : "2.0"}, "buffers" : [{"uri" : "data:application/octet-stream;base64,", "byteLength" : 1213820}], "bufferViews" : [{"buffer" : 0, "byteOffset" : 0, "byteLength" : 299636, "target" : 34963}, {"buffer" : 0, "byteOffset" : 299640, "byteLength" : 914176, "byteStride" : 32, "target" : 34962}], "images" : [{"uri" : "data:image/jpeg;base64,"}], "materials" : [{"pbrMetallicRoughness" : {"baseColorFactor" : [1, 1, 1, 1], "baseColorTexture" : {"index" : 0, "texCoord" : 0}, "metallicFactor" : 0, "roughnessFactor" : 0.8}, "emissiveFactor" : [0, 0, 0], "alphaMode" : "OPAQUE", "doubleSided" : true}], "meshes" : [{"primitives" : [{"attributes" : {"POSITION" : 1, "NORMAL" : 2, "TEXCOORD_0" : 3}, "indices" : 0, "material" : 0, "mode" : 4}]}], "nodes" : [{"mesh" : 0, "name" : "Node #0"}], "samplers" : [{"magFilter" : 9729, "minFilter" : 9987, "wrapS" : 10497, "wrapT" : 10497}], "scene" : 0, "scenes" : [{"nodes" : [0]}], "textures" : [{"sampler" : 0, "source" : 0, "name" : ""}]}