{
	"asset":{
		"generator":"Khronos glTF Blender I/O v4.2.60",
		"version":"2.0"
	},
	"extensionsUsed":[
		"KHR_materials_specular"
	],
	"scene":0,
	"scenes":[
		{
			"name":"Scene",
			"nodes":[
				0
			]
		}
	],
	"nodes":[
		{
			"mesh":0,
			"name":"Group4",
			"rotation":[
				0,
				0,
				1,
				7.549789415861596e-08
			],
			"scale":[
				2.7820329666137695,
				2.7820329666137695,
				2.7820329666137695
			],
			"translation":[
				11.203710556030273,
				2.171919822692871,
				-31.773054122924805
			]
		}
	],
	"materials":[
		{
			"doubleSided":true,
			"extensions":{
				"KHR_materials_specular":{
					"specularColorFactor":[
						2.0,
						2.0,
						2.0
					]
				}
			},
			"name":"Mud_Mound.001",
			"normalTexture":{
				"index":0
			},
			"pbrMetallicRoughness":{
				"baseColorTexture":{
					"index":1
				},
				"metallicRoughnessTexture":{
					"index":2
				},
				"roughnessFactor":0.5527864098548889
			}
		}
	],
	"meshes":[
		{
			"name":"Mesh.001",
			"primitives":[
				{
					"attributes":{
						"POSITION":0,
						"NORMAL":1,
						"TEXCOORD_0":2
					},
					"indices":3,
					"material":0
				}
			]
		}
	],
	"textures":[
		{
			"sampler":0,
			"source":0
		},
		{
			"sampler":0,
			"source":1
		},
		{
			"sampler":0,
			"source":2
		}
	],
	"images":[
		{
			"mimeType":"image/png",
			"name":"Map #1",
			"uri":"Map%201.png"
		},
		{
			"mimeType":"image/png",
			"name":"Map #0",
			"uri":"Map%200.png"
		},
		{
			"mimeType":"image/png",
			"name":"Map #2",
			"uri":"Map%202.png"
		}
	],
	"accessors":[
		{
			"bufferView":0,
			"componentType":5126,
			"count":233453,
			"max":[
				4.884331703186035,
				0.7279224395751953,
				12.380895614624023
			],
			"min":[
				2.9033775329589844,
				-1.2226250171661377,
				10.297520637512207
			],
			"type":"VEC3"
		},
		{
			"bufferView":1,
			"componentType":5126,
			"count":233453,
			"type":"VEC3"
		},
		{
			"bufferView":2,
			"componentType":5126,
			"count":233453,
			"type":"VEC2"
		},
		{
			"bufferView":3,
			"componentType":5125,
			"count":1379325,
			"type":"SCALAR"
		}
	],
	"bufferViews":[
		{
			"buffer":0,
			"byteLength":2801436,
			"byteOffset":0,
			"target":34962
		},
		{
			"buffer":0,
			"byteLength":2801436,
			"byteOffset":2801436,
			"target":34962
		},
		{
			"buffer":0,
			"byteLength":1867624,
			"byteOffset":5602872,
			"target":34962
		},
		{
			"buffer":0,
			"byteLength":5517300,
			"byteOffset":7470496,
			"target":34963
		}
	],
	"samplers":[
		{
			"magFilter":9729,
			"minFilter":9987
		}
	],
	"buffers":[
		{
			"byteLength":12987796,
			"uri":"plant.bin"
		}
	]
}
