{
  "accessors": [
    {
      "bufferView": 2,
      "componentType": 5126,
      "count": 56179,
      "max": [
        0.334267795085907,
        0.5447092056274414,
        0.17312480509281158
      ],
      "min": [
        -0.4136117994785309,
        -2.9802320611338473e-08,
        -0.1918465495109558
      ],
      "type": "VEC3"
    },
    {
      "bufferView": 2,
      "byteOffset": 674148,
      "componentType": 5126,
      "count": 56179,
      "max": [
        0.9999724626541138,
        0.9998836517333984,
        0.999994158744812
      ],
      "min": [
        -0.9999507069587708,
        -0.9997006058692932,
        -0.9999179840087891
      ],
      "type": "VEC3"
    },
    {
      "bufferView": 3,
      "componentType": 5126,
      "count": 56179,
      "max": [
        0.9999961256980896,
        0.9999872446060181,
        0.9999977946281433,
        -1.0
      ],
      "min": [
        -0.9998658299446106,
        -0.9999699592590332,
        -0.9999911785125732,
        -1.0
      ],
      "type": "VEC4"
    },
    {
      "bufferView": 1,
      "componentType": 5126,
      "count": 56179,
      "max": [
        0.999189019203186,
        0.9999708533287048
      ],
      "min": [
        5.9203506680205464e-05,
        0.00011527538299560547
      ],
      "type": "VEC2"
    },
    {
      "bufferView": 1,
      "byteOffset": 449432,
      "componentType": 5126,
      "count": 56179,
      "max": [
        0.999189019203186,
        0.9999708533287048
      ],
      "min": [
        5.9203506680205464e-05,
        0.00011527538299560547
      ],
      "type": "VEC2"
    },
    {
      "bufferView": 1,
      "byteOffset": 898864,
      "componentType": 5126,
      "count": 56179,
      "max": [
        0.999189019203186,
        0.9999708533287048
      ],
      "min": [
        5.9203506680205464e-05,
        0.00011527538299560547
      ],
      "type": "VEC2"
    },
    {
      "bufferView": 1,
      "byteOffset": 1348296,
      "componentType": 5126,
      "count": 56179,
      "max": [
        0.999189019203186,
        0.9999708533287048
      ],
      "min": [
        5.9203506680205464e-05,
        0.00011527538299560547
      ],
      "type": "VEC2"
    },
    {
      "bufferView": 1,
      "byteOffset": 1797728,
      "componentType": 5126,
      "count": 56179,
      "max": [
        0.999189019203186,
        0.9999708533287048
      ],
      "min": [
        5.9203506680205464e-05,
        0.00011527538299560547
      ],
      "type": "VEC2"
    },
    {
      "bufferView": 0,
      "componentType": 5125,
      "count": 300000,
      "type": "SCALAR"
    }
  ],
  "asset": {
    "extras": {
      "author": "KingJulien (https://sketchfab.com/KingJulien)",
      "license": "CC-BY-4.0 (http://creativecommons.org/licenses/by/4.0/)",
      "source": "https://sketchfab.com/3d-models/nike-sb-chron-366f3c99baa54665a48ea7bb6d906717",
      "title": "NIKE SB Chron"
    },
    "generator": "Sketchfab-16.15.0",
    "version": "2.0"
  },
  "bufferViews": [
    {
      "buffer": 0,
      "byteLength": 1200000,
      "name": "floatBufferViews",
      "target": 34963
    },
    {
      "buffer": 0,
      "byteLength": 2247160,
      "byteOffset": 1200000,
      "byteStride": 8,
      "name": "floatBufferViews",
      "target": 34962
    },
    {
      "buffer": 0,
      "byteLength": 1348296,
      "byteOffset": 3447160,
      "byteStride": 12,
      "name": "floatBufferViews",
      "target": 34962
    },
    {
      "buffer": 0,
      "byteLength": 898864,
      "byteOffset": 4795456,
      "byteStride": 16,
      "name": "floatBufferViews",
      "target": 34962
    }
  ],
  "buffers": [
    {
      "byteLength": 5694320,
      "uri": "shoes.bin"
    }
  ],
  "images": [
    {
      "uri": "textures/material_0_baseColor.jpeg"
    },
    {
      "uri": "textures/material_0_metallicRoughness.png"
    },
    {
      "uri": "textures/material_0_normal.jpeg"
    }
  ],
  "materials": [
    {
      "name": "material_0",
      "normalTexture": {
        "index": 2
      },
      "occlusionTexture": {
        "index": 1
      },
      "pbrMetallicRoughness": {
        "baseColorTexture": {
          "index": 0
        },
        "metallicFactor": 0.0,
        "metallicRoughnessTexture": {
          "index": 1
        }
      }
    }
  ],
  "meshes": [
    {
      "name": "Object_0",
      "primitives": [
        {
          "attributes": {
            "NORMAL": 1,
            "POSITION": 0,
            "TANGENT": 2,
            "TEXCOORD_0": 3,
            "TEXCOORD_1": 4,
            "TEXCOORD_2": 5,
            "TEXCOORD_3": 6,
            "TEXCOORD_4": 7
          },
          "indices": 8,
          "material": 0,
          "mode": 4
        }
      ]
    }
  ],
  "nodes": [
    {
      "children": [
        1
      ],
      "matrix": [
        1.0,
        0.0,
        0.0,
        0.0,
        0.0,
        2.220446049250313e-16,
        -1.0,
        0.0,
        0.0,
        1.0,
        2.220446049250313e-16,
        0.0,
        0.0,
        0.0,
        0.0,
        1.0
      ],
      "name": "Sketchfab_model"
    },
    {
      "children": [
        2
      ],
      "name": "root"
    },
    {
      "children": [
        3
      ],
      "matrix": [
        1.0,
        0.0,
        0.0,
        0.0,
        0.0,
        2.220446049250313e-16,
        1.0,
        0.0,
        0.0,
        -1.0,
        2.220446049250313e-16,
        0.0,
        0.0,
        0.0,
        0.0,
        1.0
      ],
      "name": "GLTF_SceneRootNode"
    },
    {
      "children": [
        4
      ],
      "name": "_0"
    },
    {
      "mesh": 0,
      "name": "Object_4"
    }
  ],
  "samplers": [
    {
      "magFilter": 9729,
      "minFilter": 9987,
      "wrapS": 10497,
      "wrapT": 10497
    }
  ],
  "scene": 0,
  "scenes": [
    {
      "name": "Sketchfab_Scene",
      "nodes": [
        0
      ]
    }
  ],
  "textures": [
    {
      "sampler": 0,
      "source": 0
    },
    {
      "sampler": 0,
      "source": 1
    },
    {
      "sampler": 0,
      "source": 2
    }
  ]
}
